<svg width="300" height="177" viewBox="0 0 300 177" fill="none" xmlns="http://www.w3.org/2000/svg">
<g clip-path="url(#clip0_336_399)">
<mask id="mask0_336_399" style="mask-type:luminance" maskUnits="userSpaceOnUse" x="0" y="0" width="300" height="177">
<path d="M300 0.487808H0V176.098H300V0.487808Z" fill="white"/>
</mask>
<g mask="url(#mask0_336_399)">
<path d="M300 0.487808H0V176.098H300V0.487808Z" fill="#4EAEC4"/>
</g>
<mask id="mask1_336_399" style="mask-type:luminance" maskUnits="userSpaceOnUse" x="0" y="0" width="300" height="177">
<path d="M300 0.487808H0V176.098H300V0.487808Z" fill="white"/>
</mask>
<g mask="url(#mask1_336_399)">
<mask id="mask2_336_399" style="mask-type:luminance" maskUnits="userSpaceOnUse" x="0" y="0" width="300" height="177">
<path d="M300 0.487808H0V176.098H300V0.487808Z" fill="white"/>
</mask>
<g mask="url(#mask2_336_399)">
<path d="M19.6663 124.347C19.6663 120.85 22.795 119.056 25.298 119.056C28.6055 119.056 30.3933 121.029 30.3933 123.63C30.3933 125.155 30.1251 126.051 29.41 127.486C29.41 127.486 23.8677 138.877 21.7223 143.361C21.4541 143.899 21.3647 144.527 21.3647 145.424C21.3647 146.859 22.7056 148.025 24.2253 148.025C25.5661 148.025 26.9964 146.769 26.9964 145.334C26.9964 143.63 26.1025 142.823 25.2086 142.823C24.0465 142.823 23.5995 143.272 23.5995 144.079C23.5995 144.617 23.8677 144.886 24.3146 144.886C25.298 144.886 25.0298 143.541 25.0298 143.541C25.4767 143.63 25.9237 144.169 25.7449 144.796C26.1025 144.886 26.4601 145.065 26.6388 145.334C26.3707 145.604 26.1025 145.783 25.7449 145.873C26.0131 146.68 25.6555 146.949 24.9404 147.128C25.0298 146.949 25.0298 146.68 25.0298 146.411C23.9571 146.68 22.348 146.231 22.348 144.438C22.348 142.644 23.5995 141.119 25.9237 141.478C25.3874 141.209 25.1192 140.671 25.0298 140.043C25.4767 140.222 25.9237 140.222 25.9237 140.222C25.6555 139.774 25.298 139.325 25.298 138.339C25.6555 138.608 26.1025 138.967 26.6388 138.698C25.7449 136.904 26.8176 134.572 29.5888 134.034C28.6055 135.11 28.0691 136.455 28.0691 137.711C28.0691 141.747 29.2312 142.464 29.2312 145.245C29.2312 146.411 28.6055 147.756 27.4434 148.653C28.2479 148.832 28.6949 149.191 29.0524 149.729C27.2646 150.178 24.5828 150.178 23.1526 149.639C21.5435 149.46 20.3814 148.204 20.0238 147.577C19.6663 146.949 19.0405 144.617 20.0238 142.554C21.0965 140.312 26.1919 129.46 27.8009 126.051C28.1585 125.334 28.3373 124.616 28.3373 123.72C28.3373 121.657 26.4601 120.939 25.3874 120.939C24.0465 120.939 22.795 121.926 22.795 123.181C22.795 123.899 23.2419 124.437 23.8677 124.437C25.298 124.437 25.2086 123.181 24.9404 122.374C25.8343 122.823 26.4601 123.451 26.2813 124.258C26.8176 124.347 27.2646 124.616 27.7115 125.155C27.2646 125.693 26.8176 126.051 26.1919 126.051C26.4601 127.307 25.6555 127.756 24.851 128.025C25.1192 127.217 25.298 126.141 23.7783 126.141C22.7056 126.141 21.8117 125.962 21.3647 125.244C21.3647 126.141 21.2753 129.908 21.2753 129.908C21.1859 131.343 23.1526 131.253 24.404 130.895C23.9571 132.509 22.9738 133.406 20.8284 133.137C21.3647 133.316 21.9011 133.854 21.9011 134.841C21.9011 136.097 20.8284 137.621 20.1132 138.07L19.6663 124.347Z" fill="#F5C832"/>
</g>
<mask id="mask3_336_399" style="mask-type:luminance" maskUnits="userSpaceOnUse" x="0" y="0" width="300" height="177">
<path d="M300 0.487808H0V176.098H300V0.487808Z" fill="white"/>
</mask>
<g mask="url(#mask3_336_399)">
<path d="M20.3814 124.347C20.3814 120.85 17.2527 119.056 14.7497 119.056C11.4422 119.056 9.65435 121.029 9.65435 123.63C9.65435 125.155 9.92252 126.051 10.5483 127.486C10.5483 127.486 16.0906 138.877 18.236 143.361C18.5042 143.899 18.5936 144.527 18.5936 145.424C18.5936 146.859 17.2527 148.025 15.733 148.025C14.3921 148.025 12.9619 146.769 12.9619 145.334C12.9619 143.63 13.8558 142.823 14.7497 142.823C15.9118 142.823 16.3588 143.272 16.3588 144.079C16.3588 144.617 16.0906 144.886 15.733 144.886C14.7497 144.886 15.0179 143.541 15.0179 143.541C14.5709 143.63 14.124 144.169 14.3921 144.796C14.0346 144.886 13.7664 145.065 13.4088 145.334C13.677 145.604 13.9452 145.783 14.3921 145.873C14.2133 146.68 14.4815 146.949 15.1073 147.128C14.9285 146.859 14.9285 146.59 15.0179 146.321C16.0906 146.59 17.6996 146.142 17.6996 144.348C17.6996 142.554 16.4481 141.029 14.124 141.388C14.6603 141.119 15.0179 140.581 15.0179 139.953C14.6603 140.133 14.124 140.133 14.124 140.133C14.3921 139.684 14.8391 139.236 14.7497 138.249C14.3027 138.518 13.8558 138.877 13.3194 138.608C14.2133 136.814 13.1406 134.482 10.3695 133.944C11.3528 135.02 11.8891 136.366 11.8891 137.621C11.8891 141.657 10.7271 142.375 10.7271 145.155C10.7271 146.321 11.3528 147.666 12.5149 148.563C11.7104 148.743 11.174 149.101 10.9058 149.639C12.7831 150.088 15.3754 150.088 16.8057 149.55C18.5042 149.37 19.5769 148.115 19.9344 147.487C20.292 146.859 20.9178 144.527 19.9344 142.464C18.8617 140.222 13.7664 129.37 12.1573 125.962C11.7998 125.244 11.621 124.527 11.621 123.63C11.621 121.567 13.4982 120.85 14.5709 120.85C15.8224 120.85 17.1633 121.836 17.1633 123.092C17.1633 123.809 16.7163 124.347 16.0906 124.347C14.6603 124.347 14.7497 123.092 15.0179 122.285C14.124 122.733 13.5876 123.361 13.7664 124.168C13.23 124.258 12.7831 124.527 12.3361 125.065C12.7831 125.693 13.23 126.051 13.9452 126.051C13.677 127.307 14.4815 127.756 15.1967 128.025C14.9285 127.217 14.7497 126.141 16.2694 126.141C17.3421 126.141 18.236 125.962 18.683 125.244C18.683 126.141 18.7723 129.908 18.7723 129.908C18.8617 131.343 16.8951 131.253 15.6436 130.895C16.0906 132.509 17.0739 133.406 19.3087 133.137C18.7723 133.316 18.236 133.854 18.236 134.841C18.236 136.097 19.3087 137.621 20.0238 138.07L20.3814 124.347Z" fill="#F5C832"/>
</g>
<mask id="mask4_336_399" style="mask-type:luminance" maskUnits="userSpaceOnUse" x="0" y="0" width="300" height="177">
<path d="M300 0.487808H0V176.098H300V0.487808Z" fill="white"/>
</mask>
<g mask="url(#mask4_336_399)">
<path d="M20.0238 162.286C20.0238 162.286 21.6329 163.631 22.2586 162.913C23.1526 161.837 19.4875 156.187 19.4875 154.214C19.4875 150.985 21.6329 150.088 24.3147 149.639C26.1025 149.281 29.0524 149.819 29.0524 149.819C28.5161 150.536 28.1585 150.805 27.2646 150.805C28.3373 151.344 29.3206 152.51 29.3206 154.303C29.3206 157.084 28.1585 158.25 28.1585 161.389C28.1585 163.182 29.5888 165.425 29.5888 165.425C27.0858 165.156 25.8343 162.824 26.5495 160.94C26.1025 160.851 25.7449 160.94 25.4767 161.299C25.298 160.761 25.5661 160.223 25.9237 159.595C25.5661 159.416 25.3874 159.595 24.851 159.685C24.9404 159.146 25.2086 158.608 26.0131 158.07C23.7783 158.698 22.348 157.084 22.348 155.38C22.348 154.124 23.2419 153.227 24.0465 153.227C24.3147 153.227 24.7616 153.317 25.0298 153.496C25.2086 153.137 25.1192 152.689 24.9404 152.42C25.5661 152.599 26.0131 152.868 25.7449 153.675C26.1919 153.675 26.6388 153.855 26.8176 154.124C26.5495 154.483 26.1919 154.662 25.7449 154.662C26.1025 155.38 25.7449 155.828 25.1192 156.097C25.1192 156.097 25.4767 154.662 24.5828 154.662C24.1359 154.662 23.7783 154.841 23.7783 155.469C23.7783 156.007 24.2253 156.725 25.3874 156.725C26.4601 156.635 27.354 155.918 27.354 154.214C27.354 152.599 26.1025 151.792 24.404 151.792C22.8844 151.702 21.7223 152.599 21.7223 154.214C21.7223 156.276 24.7616 161.03 24.7616 162.913C24.7616 164.348 23.5101 165.066 22.2586 165.066C20.6496 165.066 19.3087 163.452 19.3087 163.452L20.0238 162.286Z" fill="#F5C832"/>
</g>
<mask id="mask5_336_399" style="mask-type:luminance" maskUnits="userSpaceOnUse" x="0" y="0" width="300" height="177">
<path d="M300 0.487808H0V176.098H300V0.487808Z" fill="white"/>
</mask>
<g mask="url(#mask5_336_399)">
<path d="M20.0238 162.286C20.0238 162.286 18.3254 163.631 17.789 162.913C16.8951 161.837 20.5602 156.187 20.5602 154.214C20.5602 150.985 18.4148 150.088 15.733 149.639C13.9452 149.281 10.9952 149.819 10.9952 149.819C11.5316 150.536 11.8891 150.805 12.8725 150.805C11.8891 151.344 10.8164 152.51 10.8164 154.303C10.8164 157.084 11.8891 158.25 11.8891 161.389C11.8891 163.182 10.4589 165.425 10.4589 165.425C12.9618 165.156 14.2133 162.824 13.5876 160.94C13.9452 160.851 14.3027 160.94 14.6603 161.299C14.8391 160.761 14.5709 160.223 14.1239 159.595C14.3921 159.416 14.6603 159.595 15.1966 159.685C15.1073 159.146 14.8391 158.608 14.0346 158.07C16.3587 158.698 17.6996 157.084 17.6996 155.38C17.6996 154.124 16.8057 153.227 15.9118 153.227C15.6436 153.227 15.286 153.317 15.0179 153.496C14.8391 153.137 14.9285 152.689 15.1073 152.42C14.4815 152.599 14.0346 152.868 14.3921 153.675C13.9452 153.675 13.4982 153.855 13.3194 154.124C13.5876 154.483 13.9452 154.662 14.3921 154.662C14.0346 155.38 14.4815 155.828 15.0179 156.097C15.0179 156.097 14.6603 154.662 15.5542 154.662C16.0012 154.662 16.3587 154.841 16.3587 155.469C16.3587 156.007 15.9118 156.725 14.7497 156.725C13.677 156.635 12.7831 155.918 12.7831 154.214C12.7831 152.599 14.0346 151.792 15.733 151.792C17.2527 151.702 18.4148 152.599 18.4148 154.214C18.4148 156.276 15.3754 161.03 15.3754 162.913C15.3754 164.348 16.6269 165.066 17.8784 165.066C19.4875 165.066 20.8284 163.452 20.8284 163.452L20.0238 162.286Z" fill="#F5C832"/>
</g>
<mask id="mask6_336_399" style="mask-type:luminance" maskUnits="userSpaceOnUse" x="0" y="0" width="300" height="177">
<path d="M300 0.487808H0V176.098H300V0.487808Z" fill="white"/>
</mask>
<g mask="url(#mask6_336_399)">
<path d="M19.6663 62.8212C19.6663 59.3233 22.795 57.5296 25.298 57.5296C28.6055 57.5296 30.3933 59.5924 30.3933 62.1934C30.3933 63.7181 30.1251 64.6149 29.41 66.05C29.41 66.05 23.8677 77.5301 21.7223 81.9248C21.5435 82.3732 21.4541 83.0011 21.4541 83.8979C21.4541 85.333 22.795 86.4989 24.3146 86.4989C25.6555 86.4989 27.0858 85.3329 27.0858 83.8082C27.0858 82.0145 26.1919 81.297 25.298 81.297C24.1359 81.297 23.6889 81.7454 23.6889 82.5526C23.6889 83.0907 23.9571 83.3598 24.404 83.3598C25.3874 83.3598 25.1192 82.0145 25.1192 82.0145C25.5661 82.1939 26.0131 82.6423 25.8343 83.2701C26.1919 83.3598 26.5495 83.5392 26.7282 83.8082C26.4601 83.9876 26.1919 84.2567 25.8343 84.3464C25.8343 85.1536 25.5661 85.5123 24.851 85.6917C25.0298 85.4226 25.0298 85.1536 25.0298 84.8845C23.9571 85.2433 22.348 84.7051 22.348 82.9114C22.348 81.1176 23.5995 79.5929 25.9237 80.0413C25.3874 79.7723 25.1192 79.1445 25.0298 78.5166C25.4767 78.696 25.9237 78.696 25.9237 78.696C25.6555 78.2476 25.298 77.8888 25.298 76.9023C25.6555 77.0816 26.1025 77.4404 26.6388 77.261C25.7449 75.5569 26.8176 73.225 29.5888 72.5972C28.6055 73.7632 28.0691 75.0188 28.0691 76.2744C28.0691 80.3104 29.2312 81.0279 29.2312 83.8082C29.2312 84.9742 28.6055 86.3195 27.4434 87.2164C28.2479 87.3958 28.6949 87.7545 29.0524 88.2927C27.2646 88.8308 24.5828 88.8308 23.1526 88.203C21.5435 88.0236 20.3814 86.768 20.0238 86.1401C19.6663 85.5123 19.0405 83.2701 20.0238 81.2073C21.0965 78.9651 26.1919 68.1128 27.8009 64.7046C28.1585 63.9871 28.3373 63.1799 28.3373 62.3727C28.3373 60.3099 26.4601 59.5924 25.3874 59.5924C24.0465 59.5924 22.795 60.579 22.795 61.8346C22.795 62.6418 23.2419 63.0902 23.8677 63.0902C25.298 63.0902 25.2086 61.8346 24.9404 61.1171C25.8343 61.5655 26.4601 62.283 26.2813 63.0006C26.6388 62.9109 27.1752 63.2696 27.6222 63.7181C27.2646 64.1665 26.8176 64.5253 26.1919 64.5253C26.4601 65.6912 25.6555 66.2293 24.851 66.4984C25.1192 65.6015 25.298 64.6149 23.7783 64.6149C22.7056 64.6149 21.8117 64.4356 21.3647 63.7181C21.3647 64.6149 21.2753 68.3819 21.2753 68.3819C21.1859 69.8169 23.0632 69.7272 24.3146 69.3684C23.8677 70.9828 22.8844 71.8797 20.739 71.6106C21.2753 71.8797 21.8117 72.3281 21.8117 73.3147C21.8117 74.5704 20.739 76.095 20.0238 76.5435L19.6663 62.8212Z" fill="#F5C832"/>
</g>
<mask id="mask7_336_399" style="mask-type:luminance" maskUnits="userSpaceOnUse" x="0" y="0" width="300" height="177">
<path d="M300 0.487808H0V176.098H300V0.487808Z" fill="white"/>
</mask>
<g mask="url(#mask7_336_399)">
<path d="M20.3814 62.8212C20.3814 59.3233 17.2527 57.5296 14.7497 57.5296C11.4422 57.5296 9.65435 59.5924 9.65435 62.1934C9.65435 63.7181 9.92252 64.6149 10.5483 66.05C10.5483 66.05 16.0906 77.5301 18.236 81.9248C18.5042 82.3732 18.5936 83.0011 18.5936 83.8979C18.5936 85.333 17.2527 86.4989 15.733 86.4989C14.3921 86.4989 12.9619 85.3329 12.9619 83.8082C12.9619 82.0145 13.8558 81.297 14.7497 81.297C15.9118 81.297 16.3588 81.7454 16.3588 82.5526C16.3588 83.0907 16.0906 83.3598 15.733 83.3598C14.7497 83.3598 15.0179 82.0145 15.0179 82.0145C14.5709 82.1939 14.124 82.6423 14.3921 83.2701C14.0346 83.4495 13.7664 83.6289 13.4982 83.8979C13.7664 84.0773 14.0346 84.3464 14.4815 84.4361C14.2133 85.1536 14.4815 85.5123 15.1967 85.6917C15.0179 85.4226 15.0179 85.1536 15.1073 84.8845C16.18 85.2433 17.789 84.7051 17.789 82.9114C17.789 81.1176 16.5375 79.5929 14.2133 80.0413C14.7497 79.7723 15.1073 79.2341 15.1073 78.6063C14.7497 78.7857 14.2133 78.7857 14.2133 78.7857C14.4815 78.3373 14.9285 77.9785 14.8391 76.9919C14.3921 77.0816 13.9452 77.4404 13.4088 77.261C14.3027 75.5569 13.23 73.225 10.4589 72.5972C11.4422 73.7632 11.9785 75.0188 11.9785 76.2744C11.9785 80.3104 10.8164 81.0279 10.8164 83.8082C10.8164 84.9742 11.4422 86.3195 12.6043 87.2164C11.8891 87.3958 11.3528 87.7545 10.9952 88.2927C12.8725 88.8308 15.4648 88.8308 16.8951 88.203C18.5936 88.0236 19.6663 86.768 20.0238 86.1401C20.3814 85.5123 21.0071 83.1804 20.0238 81.1176C18.9511 78.8754 13.8558 68.1128 12.2467 64.7046C11.9785 63.9871 11.7104 63.1799 11.7104 62.3727C11.7104 60.3099 13.5876 59.5924 14.6603 59.5924C15.9118 59.5924 17.2527 60.579 17.2527 61.8346C17.2527 62.6418 16.8057 63.0902 16.18 63.0902C14.7497 63.0902 14.8391 61.8346 15.1073 61.1171C14.3027 61.3862 13.7664 62.1934 13.9452 62.9109C13.4088 62.9109 12.8725 63.2696 12.4255 63.7181C12.7831 64.1665 13.23 64.5253 13.9452 64.5253C13.5876 65.6912 14.3921 66.2293 15.1967 66.4984C14.9285 65.6015 14.7497 64.6149 16.2694 64.6149C17.3421 64.6149 18.236 64.4356 18.683 63.7181C18.683 64.6149 18.7723 68.3819 18.7723 68.3819C18.9511 69.8169 16.9845 69.7272 15.733 69.3684C16.18 70.9828 17.1633 71.8797 19.3981 71.6106C18.8617 71.8797 18.236 72.3281 18.236 73.3147C18.236 74.5704 19.3087 76.095 20.0238 76.5435L20.3814 62.8212Z" fill="#F5C832"/>
</g>
<mask id="mask8_336_399" style="mask-type:luminance" maskUnits="userSpaceOnUse" x="0" y="0" width="300" height="177">
<path d="M300 0.487808H0V176.098H300V0.487808Z" fill="white"/>
</mask>
<g mask="url(#mask8_336_399)">
<path d="M20.3814 52.2379C20.3814 55.7358 17.2527 57.5296 14.7497 57.5296C11.4422 57.5296 9.65435 55.5564 9.65435 52.8658C9.65435 51.4307 9.92252 50.4442 10.5483 49.0988C10.5483 49.0988 16.0906 37.6187 18.236 33.224C18.5042 32.7756 18.5936 32.1478 18.5936 31.1612C18.5936 29.7262 17.2527 28.5602 15.733 28.5602C14.3921 28.5602 12.9619 29.8159 12.9619 31.2509C12.9619 33.0446 13.8558 33.8518 14.7497 33.8518C15.9118 33.8518 16.3588 33.4034 16.3588 32.5962C16.3588 32.0581 16.0906 31.789 15.733 31.789C14.7497 31.789 15.0179 33.1343 15.0179 33.1343C14.5709 33.0446 14.124 32.5065 14.3921 31.8787C14.0346 31.6993 13.7664 31.5199 13.4982 31.2509C13.7664 30.9818 14.0346 30.8024 14.3921 30.7127C14.2133 29.9055 14.4815 29.5468 15.1967 29.3674C15.0179 29.7262 15.0179 29.9952 15.1073 30.2643C16.18 29.9055 17.789 30.4437 17.789 32.2374C17.789 34.0312 16.5375 35.5559 14.2133 35.1075C14.7497 35.3765 15.1073 35.9147 15.1073 36.5425C14.6603 36.3631 14.124 36.3631 14.124 36.3631C14.3921 36.8115 14.8391 37.26 14.7497 38.2466C14.3921 37.9775 13.9452 37.6187 13.4088 37.8878C14.3027 39.5919 13.23 42.0135 10.4589 42.5516C11.4422 41.3857 11.9785 40.13 11.9785 38.8744C11.9785 34.8384 10.8164 34.1209 10.8164 31.2509C10.8164 30.0849 11.4422 28.8293 12.6043 27.9324C11.8891 27.753 11.3528 27.3046 10.9952 26.8561C12.8725 26.318 15.4648 26.318 16.8951 26.8561C18.5936 27.0355 19.6663 28.3808 20.0238 28.919C20.3814 29.5468 21.0071 31.8787 20.0238 33.9415C18.9511 36.1837 13.8558 47.036 12.2467 50.4442C11.9785 51.1617 11.7104 51.9689 11.7104 52.7761C11.7104 54.8389 13.5876 55.6461 14.6603 55.6461C15.9118 55.6461 17.2527 54.6595 17.2527 53.4039C17.2527 52.5967 16.8057 52.1483 16.18 52.1483C14.7497 52.1483 14.8391 53.4039 15.1073 54.2111C14.3027 53.7626 13.7664 52.9554 13.9452 52.2379C13.4088 52.1483 12.8725 51.8792 12.4255 51.4307C12.7831 50.9823 13.23 50.6236 13.8558 50.6236C13.5876 49.3679 14.3921 48.8298 15.1967 48.6504C14.9285 49.4576 14.7497 50.4442 16.2694 50.4442C17.3421 50.4442 18.236 50.6236 18.683 51.3411C18.683 50.3545 18.7723 46.6773 18.7723 46.6773C18.9511 45.3319 16.9845 45.3319 15.733 45.7804C16.18 44.166 17.1633 43.2691 19.3981 43.5382C18.8617 43.2691 18.236 42.731 18.236 41.8341C18.236 40.5785 19.3087 39.0538 20.0238 38.6053L20.3814 52.2379Z" fill="#F5C832"/>
</g>
<mask id="mask9_336_399" style="mask-type:luminance" maskUnits="userSpaceOnUse" x="0" y="0" width="300" height="177">
<path d="M300 0.487808H0V176.098H300V0.487808Z" fill="white"/>
</mask>
<g mask="url(#mask9_336_399)">
<path d="M19.6663 52.238C19.6663 55.7358 22.795 57.5296 25.298 57.5296C28.6055 57.5296 30.3933 55.5565 30.3933 52.8658C30.3933 51.4308 30.1251 50.4442 29.41 49.0989C29.41 49.0989 23.8677 37.6188 21.7223 33.2241C21.5435 32.7756 21.4541 32.1478 21.4541 31.1612C21.4541 29.7262 22.795 28.5603 24.3146 28.5603C25.6555 28.5603 27.0858 29.8159 27.0858 31.2509C27.0858 33.0447 26.1919 33.8519 25.298 33.8519C24.1359 33.8519 23.6889 33.4034 23.6889 32.5962C23.6889 32.0581 23.9571 31.789 24.404 31.789C25.3874 31.789 25.1192 33.1344 25.1192 33.1344C25.5661 33.0447 26.0131 32.5065 25.8343 31.8787C26.1919 31.789 26.5495 31.6097 26.7282 31.3406C26.3707 30.9818 26.0131 30.8025 25.6555 30.7128C25.9237 29.9056 25.5661 29.5468 24.851 29.4571C25.0298 29.7262 25.0298 29.9953 25.0298 30.2643C23.9571 29.9056 22.348 30.4437 22.348 32.2375C22.348 34.0313 23.5995 35.556 25.9237 35.1075C25.3874 35.3766 25.1192 35.9147 25.0298 36.5425C25.4767 36.3631 25.9237 36.3631 25.9237 36.3631C25.6555 36.8116 25.298 37.26 25.298 38.2466C25.6555 38.0672 26.1025 37.6188 26.6388 37.8878C25.7449 39.5919 26.8176 42.0135 29.5888 42.5516C28.6055 41.296 28.0691 40.0404 28.0691 38.7847C28.0691 34.7488 29.2312 34.0313 29.2312 31.1612C29.2312 29.9953 28.6055 28.7396 27.4434 27.8428C28.2479 27.6634 28.6949 27.2149 29.0524 26.7665C27.2646 26.2284 24.5828 26.2284 23.1526 26.7665C21.5435 27.0356 20.3814 28.3809 20.0238 28.919C19.6663 29.5468 19.0405 31.8787 20.0238 33.9416C21.0965 36.1838 26.1919 47.0361 27.8009 50.4442C28.1585 51.1617 28.3373 51.9689 28.3373 52.7761C28.3373 54.8389 26.4601 55.6461 25.3874 55.6461C24.0465 55.6461 22.795 54.6596 22.795 53.4039C22.795 52.5967 23.2419 52.1483 23.8677 52.1483C25.298 52.1483 25.2086 53.4039 24.9404 54.2111C25.8343 53.8524 26.4601 53.0452 26.2813 52.3277C26.8176 52.238 27.2646 51.9689 27.7115 51.5205C27.2646 50.8927 26.8176 50.6236 26.1919 50.6236C26.4601 49.4576 25.6555 48.9195 24.851 48.6504C25.1192 49.4576 25.298 50.5339 23.7783 50.5339C22.7056 50.5339 21.8117 50.7133 21.3647 51.4308C21.3647 50.4442 21.2753 46.767 21.2753 46.767C21.1859 45.332 23.0632 45.332 24.3146 45.7804C23.8677 44.166 22.8844 43.2692 20.739 43.5382C21.2753 43.3588 21.8117 42.8207 21.8117 41.8341C21.8117 40.5785 20.739 39.0538 20.0238 38.6054L19.6663 52.238Z" fill="#F5C832"/>
</g>
<mask id="mask10_336_399" style="mask-type:luminance" maskUnits="userSpaceOnUse" x="0" y="0" width="300" height="177">
<path d="M300 0.487808H0V176.098H300V0.487808Z" fill="white"/>
</mask>
<g mask="url(#mask10_336_399)">
<path d="M20.3814 113.764C20.3814 117.262 17.2527 119.056 14.7497 119.056C11.4422 119.056 9.65435 116.993 9.65435 114.392C9.65435 112.867 9.92252 111.97 10.5483 110.535C10.5483 110.535 16.0906 99.0553 18.236 94.6605C18.5042 94.1224 18.5936 93.4946 18.5936 92.5977C18.5936 91.1627 17.2527 89.9967 15.733 89.9071C14.3921 89.9071 12.9619 91.1627 12.9619 92.5977C12.9619 94.3915 13.8558 95.1987 14.7497 95.1987C15.9118 95.1987 16.3588 94.7502 16.3588 93.943C16.3588 93.4049 16.0906 93.1358 15.733 93.1358C14.7497 93.1358 15.0179 94.4811 15.0179 94.4811C14.5709 94.3018 14.124 93.8533 14.3921 93.2255C14.0346 93.1358 13.7664 92.9564 13.4088 92.6874C13.677 92.4183 13.9452 92.2389 14.3921 92.1493C14.2133 91.4318 14.4815 91.073 15.1073 90.8936C14.9285 91.2524 14.9285 91.5214 15.0179 91.7008C16.0906 91.3421 17.6996 91.8802 17.6996 93.674C17.6996 95.4677 16.4481 96.9924 14.124 96.6337C14.6603 96.9027 15.0179 97.4409 15.0179 98.0687C14.6603 97.8893 14.124 97.8893 14.124 97.8893C14.3921 98.3377 14.8391 98.7862 14.7497 99.7728C14.3921 99.5037 13.9452 99.145 13.4088 99.3243C14.3027 101.028 13.23 103.36 10.4589 103.988C11.4422 102.822 11.9785 101.567 11.9785 100.311C11.9785 96.2749 10.8164 95.5574 10.8164 92.6874C10.8164 91.5214 11.4422 90.2658 12.6043 89.3689C11.8891 89.1895 11.3528 88.8308 10.9952 88.2927C12.8725 87.8442 15.4648 87.8442 16.8951 88.3823C18.5936 88.5617 19.6663 89.8174 20.0238 90.4452C20.3814 91.073 21.0071 93.4049 20.0238 95.4677C18.9511 97.7099 13.8558 108.562 12.2467 111.97C11.8891 112.688 11.7104 113.405 11.7104 114.302C11.7104 116.365 13.5876 117.083 14.6603 117.083C15.9118 117.083 17.2527 116.096 17.2527 114.84C17.2527 114.033 16.8057 113.585 16.18 113.585C14.7497 113.585 14.8391 114.84 15.1073 115.648C14.2133 115.199 13.677 114.571 13.8558 113.764C13.3194 113.674 12.8725 113.495 12.4255 112.957C12.7831 112.509 13.23 112.15 13.8558 112.15C13.5876 110.894 14.3921 110.356 15.1073 110.087C14.8391 110.984 14.6603 111.97 16.18 111.97C17.2527 111.97 18.1466 112.15 18.5936 112.867C18.5936 111.881 18.683 108.203 18.683 108.203C18.7723 106.768 16.8057 106.858 15.5542 107.217C16.0012 105.603 16.9845 104.795 19.2193 104.975C18.683 104.795 18.1466 104.257 18.1466 103.271C18.1466 101.925 19.2193 100.49 19.9344 100.042L20.3814 113.764Z" fill="#F5C832"/>
</g>
<mask id="mask11_336_399" style="mask-type:luminance" maskUnits="userSpaceOnUse" x="0" y="0" width="300" height="177">
<path d="M300 0.487808H0V176.098H300V0.487808Z" fill="white"/>
</mask>
<g mask="url(#mask11_336_399)">
<path d="M19.6663 113.764C19.6663 117.262 22.795 119.056 25.298 119.056C28.6055 119.056 30.3933 116.993 30.3933 114.392C30.3933 112.867 30.1251 111.97 29.41 110.535C29.41 110.535 23.8677 99.0553 21.7223 94.6605C21.4541 94.1224 21.3647 93.4946 21.3647 92.5977C21.3647 91.1627 22.7056 89.9967 24.2253 89.9071C25.5661 89.9071 26.9964 91.1627 26.9964 92.5977C26.9964 94.3915 26.1025 95.1987 25.2086 95.1987C24.0465 95.1987 23.5995 94.7502 23.5995 93.943C23.5995 93.4049 23.8677 93.1358 24.3146 93.1358C25.298 93.1358 25.0298 94.4811 25.0298 94.4811C25.4767 94.3018 25.9237 93.8533 25.7449 93.2255C26.1025 93.1358 26.4601 92.9564 26.6388 92.6874C26.3707 92.4183 26.1025 92.2389 25.7449 92.1493C26.0131 91.4318 25.6555 91.073 24.9404 90.8936C25.1192 91.2524 25.1192 91.5214 25.0298 91.7008C23.9571 91.3421 22.348 91.8802 22.348 93.674C22.348 95.4677 23.5995 96.9924 25.9237 96.6337C25.3874 96.9027 25.1192 97.4409 25.0298 98.0687C25.4767 97.8893 25.9237 97.8893 25.9237 97.8893C25.6555 98.3377 25.298 98.7862 25.298 99.7728C25.6555 99.5934 26.1025 99.2346 26.6388 99.414C25.7449 101.118 26.8176 103.45 29.5888 104.078C28.6055 102.912 28.0691 101.656 28.0691 100.401C28.0691 96.3646 29.2312 95.6471 29.2312 92.7771C29.2312 91.6111 28.6055 90.3555 27.4434 89.4586C28.2479 89.2792 28.6949 88.8308 29.0524 88.2927C27.2646 87.8442 24.5828 87.8442 23.1526 88.3823C21.5435 88.5617 20.3814 89.8174 20.0238 90.4452C19.6663 91.073 19.0405 93.4049 20.0238 95.4677C21.0965 97.7099 26.1919 108.562 27.8009 111.97C28.1585 112.688 28.3373 113.405 28.3373 114.302C28.3373 116.365 26.4601 117.083 25.3874 117.083C24.0465 117.083 22.795 116.096 22.795 114.84C22.795 114.033 23.2419 113.585 23.8677 113.585C25.298 113.585 25.2086 114.84 24.9404 115.648C25.8343 115.199 26.4601 114.571 26.2813 113.764C26.8176 113.674 27.2646 113.495 27.7115 112.957C27.2646 112.419 26.8176 112.15 26.1919 112.15C26.4601 110.894 25.6555 110.356 24.851 110.087C25.1192 110.984 25.298 111.97 23.7783 111.97C22.7056 111.97 21.8117 112.15 21.3647 112.867C21.3647 111.881 21.2753 108.203 21.2753 108.203C21.1859 106.768 23.1526 106.858 24.404 107.217C23.9571 105.603 22.9738 104.795 20.8284 104.975C21.3647 104.795 21.9011 104.257 21.9011 103.271C21.9011 101.925 20.8284 100.49 20.1132 100.042L19.6663 113.764Z" fill="#F5C832"/>
</g>
<mask id="mask12_336_399" style="mask-type:luminance" maskUnits="userSpaceOnUse" x="0" y="0" width="300" height="177">
<path d="M300 0.487808H0V176.098H300V0.487808Z" fill="white"/>
</mask>
<g mask="url(#mask12_336_399)">
<path d="M20.0238 14.2998C20.0238 14.2998 21.6329 12.8648 22.2586 13.5823C23.1526 14.7483 19.4875 20.3986 19.4875 22.3718C19.4875 25.6005 21.6329 26.4974 24.3147 26.9459C26.1025 27.2149 29.0525 26.8562 29.0525 26.8562C28.5161 26.049 28.1585 25.8696 27.2646 25.8696C28.3373 25.3315 29.3206 24.1655 29.3206 22.3718C29.3206 19.5914 28.1585 18.4255 28.1585 15.2864C28.1585 13.4926 29.5888 11.3401 29.5888 11.3401C27.0858 11.5195 25.8343 13.9411 26.5495 15.8245C26.1025 15.9142 25.7449 15.8245 25.4768 15.4658C25.2086 15.8245 25.4768 16.4523 25.9237 16.9905C25.5662 17.1698 25.3874 17.0802 24.851 16.9905C24.9404 17.5286 25.2086 18.0667 26.0131 18.6049C23.6889 17.977 22.348 19.5914 22.348 21.2955C22.348 22.5511 23.242 23.448 24.0465 23.448C24.3147 23.448 24.7616 23.2687 25.0298 23.0893C25.2086 23.448 25.1192 23.9862 24.9404 24.2552C25.5662 24.0758 25.9237 23.7171 25.6555 22.9099C26.1025 22.9099 26.5495 22.7305 26.7283 22.4615C26.5495 22.1027 26.1025 21.9233 25.6555 21.9233C26.0131 21.2058 25.6555 20.8471 25.0298 20.4883C25.0298 20.4883 25.3874 21.9233 24.4935 21.9233C24.0465 21.9233 23.6889 21.7439 23.6889 21.2058C23.6889 20.6677 24.1359 19.9502 25.298 19.9502C26.3707 19.9502 27.2646 20.6677 27.2646 22.4615C27.2646 24.0758 26.0131 24.883 24.3147 24.883C22.795 24.9727 21.6329 24.0758 21.6329 22.5511C21.6329 20.3986 24.6722 15.6451 24.6722 13.7617C24.6722 12.3267 23.4207 11.5195 22.1693 11.5195C20.5602 11.5195 19.2193 13.1339 19.2193 13.1339L20.0238 14.2998Z" fill="#F5C832"/>
</g>
<mask id="mask13_336_399" style="mask-type:luminance" maskUnits="userSpaceOnUse" x="0" y="0" width="300" height="177">
<path d="M300 0.487808H0V176.098H300V0.487808Z" fill="white"/>
</mask>
<g mask="url(#mask13_336_399)">
<path d="M20.0238 14.2998C20.0238 14.2998 18.3254 12.8648 17.789 13.5823C16.8951 14.7482 20.5602 20.3986 20.5602 22.3717C20.5602 25.6005 18.4148 26.4974 15.733 26.9458C13.9452 27.2149 10.9952 26.8562 10.9952 26.8562C11.5316 26.049 11.8891 25.8696 12.8725 25.8696C11.8891 25.2418 10.8164 24.0758 10.8164 22.282C10.8164 19.5017 11.8891 18.3358 11.8891 15.1967C11.8891 13.4029 10.4589 11.2504 10.4589 11.2504C12.9618 11.4298 14.2133 13.8513 13.5876 15.7348C13.9452 15.8245 14.3027 15.7348 14.6603 15.376C14.8391 15.9142 14.5709 16.4523 14.1239 16.9904C14.3921 17.1698 14.6603 17.0801 15.1966 16.9904C15.1966 17.4389 14.8391 18.0667 14.0346 18.6048C16.3587 17.977 17.6996 19.5914 17.6996 21.2955C17.6996 22.5511 16.8057 23.448 15.9118 23.448C15.6436 23.448 15.286 23.2686 15.0179 23.0892C14.9285 23.448 15.0179 23.9861 15.1966 24.2552C14.5709 24.0758 14.1239 23.7171 14.3921 22.9099C13.9452 22.9099 13.4982 22.7305 13.3194 22.4614C13.5876 22.1027 13.9452 21.9233 14.3921 21.9233C14.0346 21.2058 14.4815 20.7573 15.0179 20.4883C15.0179 20.4883 14.6603 21.9233 15.5542 21.9233C16.0012 21.9233 16.3587 21.7439 16.3587 21.2058C16.3587 20.6677 15.9118 19.9501 14.7497 19.9501C13.677 19.9501 12.7831 20.6677 12.7831 22.4614C12.7831 24.0758 14.0346 24.883 15.733 24.883C17.2527 24.9727 18.4148 24.0758 18.4148 22.5511C18.4148 20.3986 15.3754 15.6451 15.3754 13.7617C15.3754 12.3266 16.6269 11.5194 17.8784 11.5194C19.4875 11.5194 20.8284 13.1338 20.8284 13.1338L20.0238 14.2998Z" fill="#F5C832"/>
</g>
<mask id="mask14_336_399" style="mask-type:luminance" maskUnits="userSpaceOnUse" x="0" y="0" width="300" height="177">
<path d="M300 0.487808H0V176.098H300V0.487808Z" fill="white"/>
</mask>
<g mask="url(#mask14_336_399)">
<path d="M16.8057 113.495C16.8057 113.226 16.18 113.405 15.733 113.495C15.2861 113.585 14.9285 113.854 15.0179 114.123C15.0179 114.392 15.6436 114.302 16.0906 114.123C16.5376 114.033 16.8057 113.764 16.8057 113.495Z" fill="#4EAEC4"/>
</g>
<mask id="mask15_336_399" style="mask-type:luminance" maskUnits="userSpaceOnUse" x="0" y="0" width="300" height="177">
<path d="M300 0.487808H0V176.098H300V0.487808Z" fill="white"/>
</mask>
<g mask="url(#mask15_336_399)">
<path d="M15.286 114.392H15.1073L14.8391 114.033C14.8391 113.674 15.1073 113.405 15.733 113.226C16.0906 113.136 16.3587 113.047 16.6269 113.047H16.8057L17.0739 113.405C17.0739 113.764 16.8057 114.123 16.18 114.213C15.8224 114.392 15.4648 114.392 15.286 114.392Z" fill="#4EAEC4"/>
</g>
<mask id="mask16_336_399" style="mask-type:luminance" maskUnits="userSpaceOnUse" x="0" y="0" width="300" height="177">
<path d="M300 0.487808H0V176.098H300V0.487808Z" fill="white"/>
</mask>
<g mask="url(#mask16_336_399)">
<path d="M156.615 119.773C133.105 119.863 116.567 100.939 115.137 82.0145C115.137 82.0145 114.243 81.6558 114.064 82.463C113.796 84.4361 114.601 90.6246 114.333 90.1762C113.796 89.369 109.505 77.8889 108.701 79.1445C107.628 80.8486 113.528 93.9431 113.17 94.3915C112.008 95.8265 105.304 81.5661 104.768 82.6423C102.712 86.6783 113.081 99.5038 112.992 100.042C112.813 101.746 105.125 93.1359 104.499 94.0328C103.069 96.0956 112.724 103.809 113.26 104.347C114.78 106.051 107.986 101.298 107.807 102.912C107.628 104.257 111.114 107.038 113.17 108.204C115.226 109.369 115.942 109.011 116.478 110.087C116.925 110.894 112.545 109.639 112.724 110.535C112.902 112.419 117.461 112.06 118.176 112.867C118.892 113.675 115.137 113.047 115.316 113.764C115.584 115.02 119.428 115.199 119.428 115.648C119.517 116.186 117.014 115.827 117.193 116.814C117.372 117.71 121.126 117.531 122.02 118.159C122.914 118.787 118.623 118.249 122.02 119.863C125.328 121.567 129.172 123.361 134.356 124.437C139.541 125.513 142.223 124.347 142.402 123.989C142.58 123.63 139.899 124.258 136.234 123.63C132.569 122.912 127.563 120.581 125.596 119.415C124.97 119.056 127.563 118.338 127.026 117.621C126.49 116.903 124.434 117.71 123.629 116.724C123.093 116.096 124.613 116.096 124.613 115.648C124.613 115.289 121.752 114.571 121.216 113.854C120.679 113.136 122.467 113.316 122.557 112.778C122.646 112.419 120.769 111.791 120.679 111.343C120.501 110.894 122.735 110.984 121.752 110.356C120.679 109.728 117.64 109.011 117.104 107.934C116.567 106.948 119.339 108.114 118.623 107.127C118.087 106.41 115.405 105.244 114.78 103.719C114.422 102.643 116.746 103.54 116.746 102.912C116.746 101.836 115.405 102.553 114.958 99.4141C114.78 98.4275 116.746 99.0553 116.746 99.0553L117.014 98.5172C117.014 98.5172 119.339 99.7728 122.288 103.271C125.238 106.769 126.132 109.997 128.903 112.329C130.244 113.495 130.334 111.881 133.373 113.764C136.412 115.648 137.664 116.993 140.882 119.773C141.329 120.132 143.385 119.415 149.553 120.67C152.861 121.388 153.576 123.092 153.576 123.092C153.576 123.181 155.453 122.016 156.257 120.67C156.615 120.132 156.973 120.67 157.062 120.491C156.973 120.222 156.615 119.773 156.615 119.773Z" fill="#F5C832"/>
</g>
<mask id="mask17_336_399" style="mask-type:luminance" maskUnits="userSpaceOnUse" x="0" y="0" width="300" height="177">
<path d="M300 0.487808H0V176.098H300V0.487808Z" fill="white"/>
</mask>
<g mask="url(#mask17_336_399)">
<path d="M138.021 125.155C136.77 125.155 135.429 124.975 133.999 124.706C128.546 123.63 124.613 121.567 121.663 120.132C120.59 119.594 120.232 119.325 120.322 118.966C120.322 118.607 120.858 118.518 121.305 118.518C121.484 118.518 121.752 118.428 121.752 118.338C121.305 118.159 120.411 117.98 119.517 117.89C118.087 117.71 116.925 117.531 116.836 116.903L117.014 116.455C117.282 116.096 117.908 116.006 118.355 115.917C118.623 115.827 119.07 115.737 119.07 115.737C118.981 115.648 118.355 115.468 117.819 115.379C116.657 115.02 115.137 114.751 114.958 113.854C115.226 113.316 115.763 113.316 116.657 113.316C117.104 113.316 117.908 113.316 117.998 113.136C117.729 112.778 116.836 112.688 116.031 112.509C114.422 112.239 112.634 111.881 112.545 110.625C112.992 109.728 113.886 109.997 114.958 110.177C115.316 110.177 115.763 110.266 116.031 110.266C116.031 109.728 115.673 109.638 115.137 109.459C114.69 109.28 114.064 109.1 113.081 108.562C111.204 107.486 107.449 104.616 107.628 103.091C107.628 102.912 107.807 102.553 108.254 102.553C109.058 102.553 110.667 103.36 111.919 103.988C112.545 104.347 113.26 104.706 113.439 104.706C113.081 104.526 112.723 104.168 112.187 103.719C107.718 99.8625 103.337 95.7368 104.41 94.0327C105.304 93.8534 106.645 95.0193 108.701 96.9925C110.31 98.4275 112.277 100.221 112.813 100.221C112.813 99.9522 112.187 99.145 111.561 98.1584C108.79 94.1224 103.069 85.7814 104.678 82.732C105.393 82.5526 106.198 83.8979 108.164 87.3958C109.774 90.1761 112.277 94.4812 112.992 94.4812C113.081 94.2121 112.366 92.3287 111.74 90.5349C109.595 84.9742 107.986 80.3104 108.611 79.2342C109.505 79.0548 110.936 81.8351 113.26 87.3958C113.796 88.5617 114.243 89.638 114.422 90.0864C114.333 89.7277 114.243 88.8308 114.154 88.1133C114.064 86.2299 113.796 83.8083 113.975 82.6423C114.064 82.1939 114.333 81.9248 114.78 81.9248C115.048 81.9248 115.226 82.0145 115.226 82.0145C116.746 100.58 132.569 119.684 156.526 119.684C156.794 119.773 157.062 120.042 157.062 120.311V120.401L156.883 120.76L156.615 120.58L156.347 120.67C155.274 122.105 153.486 123.361 153.308 123.361C153.129 123.002 152.324 121.477 149.285 120.85C145.888 120.222 143.832 120.042 142.491 120.042H141.24C140.793 120.042 140.524 120.042 140.346 119.863L138.558 118.338C136.591 116.545 135.34 115.468 132.926 113.944C131.496 113.047 130.781 112.957 130.334 112.957H129.708C129.35 112.957 128.993 112.867 128.546 112.509C126.937 111.163 125.954 109.549 124.97 107.755C124.166 106.32 123.272 104.885 121.931 103.271C118.981 99.8625 116.746 98.5172 116.657 98.5172V98.9656C116.389 99.0553 115.852 98.8759 115.316 98.8759C115.137 98.8759 114.958 98.8759 114.869 98.9656C115.048 101.028 115.673 101.477 116.12 101.836C116.478 102.015 116.657 102.284 116.657 102.732C116.657 103.181 116.12 103.181 115.852 103.181H115.137C114.78 103.181 114.69 103.181 114.601 103.271C114.958 104.526 116.21 105.333 117.193 105.961C117.729 106.32 118.176 106.589 118.355 106.948L118.445 107.038L118.534 107.396C118.445 107.576 118.176 107.576 117.998 107.576H117.104C117.193 108.473 118.713 109.1 119.875 109.549C120.501 109.728 121.037 109.997 121.395 110.177C121.573 110.266 121.752 110.446 121.752 110.625C121.663 110.894 121.395 110.984 121.037 110.984C120.858 110.984 120.501 111.163 120.501 111.163C120.59 111.343 121.126 111.612 121.484 111.791C122.11 112.15 122.467 112.329 122.467 112.598C122.467 112.957 122.02 113.047 121.663 113.136C121.395 113.226 121.037 113.316 121.037 113.405C121.305 113.854 122.288 114.302 123.093 114.571C124.076 114.93 124.523 115.109 124.523 115.379C124.523 115.648 124.166 115.827 123.898 115.917C123.719 115.917 123.54 116.096 123.451 116.186C123.808 117.083 124.613 117.083 125.328 117.083C125.954 117.083 126.579 117.083 126.937 117.531L127.026 117.89C126.937 118.249 126.49 118.607 126.043 118.876C125.775 119.056 125.507 119.235 125.507 119.325C127.294 120.311 132.3 122.823 136.144 123.451C137.306 123.72 138.558 123.809 139.988 123.809C140.524 123.809 140.971 123.809 141.329 123.809H141.955C142.312 123.809 142.402 123.809 142.491 123.989C142.134 124.437 140.614 125.155 138.021 125.155ZM113.439 110.356C112.902 110.356 112.813 110.446 112.723 110.535C112.813 111.612 114.601 111.881 115.942 112.15C117.014 112.329 117.819 112.419 118.087 112.778L118.176 112.867V113.226C117.998 113.585 117.461 113.585 116.567 113.585C116.12 113.585 115.316 113.674 115.226 113.764C115.316 114.392 116.836 114.751 117.819 115.02C118.802 115.289 119.339 115.379 119.339 115.737C119.428 116.096 118.892 116.186 118.266 116.275C117.819 116.365 117.282 116.455 117.104 116.634C117.104 117.262 118.445 117.441 119.428 117.531C120.411 117.71 121.305 117.8 121.752 118.069L121.931 118.428C121.841 118.607 121.573 118.697 121.216 118.787C121.037 118.787 120.59 118.876 120.501 118.966C120.501 118.966 120.501 119.235 121.663 119.773C124.613 121.208 128.635 123.271 133.999 124.258C135.429 124.616 136.681 124.706 137.932 124.706C140.435 124.706 141.776 124.078 141.865 123.899L141.061 124.078C140.703 124.078 140.256 124.078 139.72 124.078C138.379 124.078 137.128 123.899 135.876 123.72C132.032 123.002 127.026 120.58 125.149 119.504C124.97 118.966 125.328 118.787 125.685 118.518C126.043 118.338 126.49 117.98 126.579 117.8C126.311 117.352 125.864 117.352 125.238 117.352C124.434 117.352 123.629 117.352 123.093 116.724L122.914 116.275C123.004 116.006 123.272 115.917 123.54 115.737C123.629 115.648 123.898 115.558 123.987 115.558C123.898 115.468 123.272 115.199 122.735 115.02C121.841 114.751 120.858 114.392 120.59 113.944L120.501 113.495C120.59 113.226 120.948 113.136 121.305 113.047C121.484 113.047 121.841 112.867 121.841 112.778C121.752 112.688 121.395 112.419 121.037 112.329C120.411 111.97 119.964 111.791 119.875 111.432C120.054 110.984 120.322 110.894 120.769 110.804C120.948 110.804 121.216 110.715 121.216 110.625C120.679 110.266 120.143 110.177 119.517 109.908C118.176 109.459 116.657 108.831 116.299 108.024V107.934V107.486C116.478 107.127 116.925 107.307 117.372 107.307H117.729C117.64 106.948 117.282 106.679 116.746 106.32C115.673 105.603 114.422 104.795 114.064 103.719C113.975 103.54 113.975 103.36 114.064 103.181C114.243 103.002 114.511 102.912 114.869 102.912H115.584C115.763 102.912 116.031 102.912 116.031 102.732C116.031 102.374 115.852 102.284 115.584 102.105C115.137 101.746 114.511 101.208 114.154 99.2347C114.154 99.0553 114.154 98.8759 114.333 98.7862C114.69 98.3378 116.21 98.7862 116.21 98.7862L116.299 98.3378C116.657 98.3378 118.892 99.5934 121.841 103.091C123.182 104.706 124.076 106.141 124.97 107.576C125.954 109.28 126.937 110.894 128.457 112.239C128.903 112.598 129.172 112.598 129.44 112.598H130.066C130.602 112.598 131.406 112.778 132.926 113.674C135.34 115.199 136.591 116.275 138.558 118.069L140.435 119.684C140.524 119.773 140.882 119.773 141.061 119.773H142.134C143.474 119.773 145.53 119.863 149.017 120.58C152.414 121.298 153.129 123.002 153.129 123.092C153.129 122.912 154.738 121.746 155.542 120.67C155.632 120.401 155.811 120.311 155.989 120.311L156.347 120.401V119.863L156.168 120.042C132.032 120.042 116.12 100.849 114.601 82.2836C114.511 82.2836 114.422 82.2836 114.333 82.2836C114.064 82.2836 113.886 82.3732 113.886 82.6423C113.707 83.7186 113.886 86.1402 114.064 87.9339C114.243 89.9968 114.243 90.3555 114.154 90.4452C113.707 90.1761 113.26 89.1896 112.545 87.3958C111.74 84.7948 109.416 79.4135 108.79 79.3238C108.164 80.3104 110.578 86.5886 111.919 90.3555C113.26 93.8534 113.439 94.3915 113.26 94.4812L112.902 94.6606C112.008 94.6606 110.31 91.7905 107.718 87.4855C106.466 85.333 105.125 82.9114 104.678 82.8217C103.248 85.6917 108.88 93.943 111.651 97.8893C112.813 99.6831 113.081 99.9522 112.992 100.132V100.311L112.634 100.49C112.008 100.49 110.578 99.2347 108.254 97.1718C106.734 95.7368 104.946 94.1224 104.499 94.1224C103.427 95.7368 110.042 101.477 112.187 103.271C112.723 103.719 113.081 104.078 113.17 104.168C113.349 104.437 113.439 104.616 113.439 104.706C112.992 104.795 112.455 104.616 111.561 104.078C110.399 103.54 108.79 102.643 108.075 102.643C107.807 102.643 107.807 102.822 107.718 102.822C107.539 103.988 110.757 106.679 112.992 107.934C113.886 108.473 114.511 108.742 114.958 108.831C115.584 109.011 116.031 109.19 116.389 109.818C116.21 110.894 115.405 110.356 114.69 110.266C114.333 110.356 113.886 110.356 113.439 110.356Z" fill="#F5C832"/>
</g>
<mask id="mask18_336_399" style="mask-type:luminance" maskUnits="userSpaceOnUse" x="0" y="0" width="300" height="177">
<path d="M300 0.487808H0V176.098H300V0.487808Z" fill="white"/>
</mask>
<g mask="url(#mask18_336_399)">
<path d="M172.437 126.859C171.543 126.679 171.633 127.307 171.633 127.307C171.722 128.114 171.096 129.101 170.381 129.28C169.845 129.37 170.113 129.818 169.934 130.177L167.61 130.087C164.035 132.061 159.476 132.778 154.023 132.15C154.023 132.15 152.86 133.047 151.877 133.944C150.804 134.931 150.089 135.11 149.911 135.828C149.732 136.635 150.447 136.904 151.341 136.993C152.324 136.993 153.486 136.186 153.486 136.186C153.486 136.186 153.665 136.904 154.559 136.993C155.453 137.083 156.973 136.455 156.973 136.455C156.973 136.455 158.313 137.083 159.297 136.904C160.28 136.724 161.174 136.097 161.174 136.097C161.174 136.097 161.442 137.263 162.425 137.263C163.409 137.352 164.928 136.007 164.928 136.007C164.928 136.007 165.644 136.904 166.627 136.724C167.61 136.635 168.683 135.469 168.683 135.469C168.683 135.469 169.845 136.007 170.918 135.648C171.99 135.289 173.063 134.213 173.063 134.213C173.063 134.213 174.046 135.02 174.851 134.662C175.745 134.392 176.281 133.137 176.281 133.137C176.281 133.137 178.605 134.123 180.125 133.316C181.198 132.868 180.93 131.074 180.93 131.074C180.93 131.074 187.276 131.971 187.008 127.845C187.187 127.486 176.907 127.666 172.437 126.859Z" fill="#F5C832"/>
</g>
<mask id="mask19_336_399" style="mask-type:luminance" maskUnits="userSpaceOnUse" x="0" y="0" width="300" height="177">
<path d="M300 0.487808H0V176.098H300V0.487808Z" fill="white"/>
</mask>
<g mask="url(#mask19_336_399)">
<path d="M162.604 137.442C161.621 137.352 161.263 136.545 161.174 136.186C161.085 136.455 160.37 136.904 159.476 136.993C158.313 136.993 157.062 136.545 157.062 136.545C157.151 136.545 155.721 137.083 154.827 137.083C153.933 136.993 153.576 136.545 153.486 136.186C153.397 136.455 152.324 137.173 151.52 137.173C150.715 137.173 150.179 136.904 149.911 136.635C149.732 136.366 149.732 136.097 149.821 135.827C150 135.379 150.358 135.02 150.894 134.662C151.162 134.482 151.43 134.213 151.788 133.944C152.861 133.047 153.933 132.15 153.933 132.15C155.274 132.24 156.526 132.33 157.688 132.33C161.442 132.33 164.75 131.612 167.521 130.087L169.845 130.177C169.756 129.729 169.756 129.37 170.292 129.28C170.918 129.101 171.454 128.294 171.454 127.486C171.454 127.486 171.365 127.217 171.544 127.038C171.722 126.859 171.901 126.769 172.08 126.769C174.851 127.307 179.052 127.486 182.36 127.576C186.919 127.756 187.187 127.845 187.187 128.114C187.277 129.101 187.008 129.818 186.472 130.356C185.489 131.433 183.701 131.612 182.36 131.612C181.645 131.612 181.198 131.522 181.019 131.522C181.198 131.702 181.377 133.226 180.304 133.765C179.052 134.392 176.639 133.675 176.371 133.585C176.46 133.765 175.834 134.841 175.03 135.11C174.225 135.379 173.242 134.751 173.063 134.572C173.063 134.751 172.08 135.738 171.097 136.007C170.113 136.276 168.862 135.827 168.772 135.827C168.862 135.917 167.789 136.904 166.806 137.083C165.822 137.083 165.107 136.366 165.018 136.276C165.018 136.276 163.588 137.442 162.604 137.442ZM161.174 135.917C161.442 136.097 161.71 137.083 162.604 137.083L162.694 137.262V137.083C163.588 137.083 165.107 135.827 165.107 135.827C165.375 135.827 165.912 136.545 166.716 136.545C167.7 136.455 168.772 135.379 168.862 135.379C169.041 135.379 169.666 135.558 170.381 135.558C170.65 135.558 170.918 135.558 171.097 135.469C172.169 135.11 173.153 134.123 173.153 134.123C173.331 134.123 174.047 134.662 174.672 134.662C175.745 134.303 176.371 133.226 176.371 133.137C176.639 133.047 177.801 133.496 178.963 133.496C179.499 133.496 179.946 133.406 180.304 133.226C181.287 132.778 181.019 131.164 181.019 131.164C181.198 130.984 181.824 131.074 182.628 131.074C183.88 131.074 185.578 130.895 186.561 129.908C187.008 129.37 187.277 128.832 187.187 127.935C187.008 127.935 184.774 127.845 182.628 127.756C179.231 127.576 175.03 127.486 172.527 127.038H172.08C172.08 128.204 171.454 129.28 170.65 129.46C170.381 129.549 170.381 129.639 170.381 129.818C170.381 129.908 170.381 130.177 170.292 130.267H167.878C164.392 132.24 159.744 132.957 154.201 132.33C154.201 132.33 153.129 133.137 152.235 134.034C151.877 134.392 151.52 134.572 151.252 134.751C150.715 135.11 150.447 135.289 150.358 135.738C150.268 135.917 150.268 136.097 150.447 136.186C150.626 136.455 151.073 136.635 151.698 136.635C152.592 136.635 153.754 135.827 153.754 135.827C154.023 136.007 154.201 136.545 154.917 136.635C155.9 136.635 157.241 136.186 157.241 136.186C157.42 136.186 158.403 136.635 159.386 136.635C160.369 136.545 161.174 135.917 161.174 135.917Z" fill="#F5C832"/>
</g>
<mask id="mask20_336_399" style="mask-type:luminance" maskUnits="userSpaceOnUse" x="0" y="0" width="300" height="177">
<path d="M300 0.487808H0V176.098H300V0.487808Z" fill="white"/>
</mask>
<g mask="url(#mask20_336_399)">
<path d="M158.85 122.374C158.85 122.374 160.727 121.657 163.945 121.029C170.113 119.773 172.259 120.132 172.706 119.773C177.533 114.302 181.198 113.944 184.684 112.509C187.545 110.087 188.439 106.768 191.389 103.271C194.339 99.7728 196.126 99.5037 196.126 99.5037L196.484 100.311C196.484 100.311 198.093 99.145 198.004 100.132C197.914 101.656 196.573 103.181 196.663 104.168C196.663 104.885 198.808 103.898 198.629 104.526C198.093 106.141 196.395 107.127 195.948 107.845C195.143 108.921 197.914 107.486 197.378 108.562C196.841 109.639 194.07 110.715 192.998 111.432C192.372 111.791 193.713 111.881 193.534 112.419C193.355 112.867 190.584 113.944 190.673 114.302C190.763 114.751 191.389 114.84 191.12 115.199C190.495 115.827 188.17 115.917 188.17 116.365C188.17 116.814 188.617 117.172 188.17 117.8C187.366 118.876 186.74 117.8 186.383 118.607C186.204 119.056 187.723 120.042 186.74 120.222C185.31 120.491 184.237 121.119 183.075 121.836C182.628 122.105 180.572 122.554 179.321 122.823C178.516 123.002 174.136 123.54 174.404 123.899C174.583 124.258 177.354 124.258 183.164 123.181C185.667 122.733 187.098 122.464 191.031 121.208C195.501 119.773 189.869 119.684 190.763 119.056C191.657 118.428 195.59 118.697 195.679 117.89C195.858 116.903 193.534 117.172 193.534 116.634C193.623 116.096 198.272 116.096 198.54 114.84C198.719 114.123 195.858 114.661 196.573 113.854C197.199 113.047 200.954 112.778 201.132 111.163C201.222 110.177 198.093 111.432 198.451 110.625C198.629 110.266 199.881 109.908 201.132 109.1C203.099 107.665 206.228 105.333 206.049 103.988C205.87 102.284 199.613 107.845 200.149 105.782C200.328 104.975 210.34 97.0822 208.731 95.109C207.569 93.8534 200.417 102.374 200.149 100.67C200.06 100.132 211.323 87.3958 209.267 83.4495C208.731 82.3733 200.238 98.6965 199.076 97.2615C198.719 96.9028 206.228 81.2073 205.066 79.6826C204.529 78.8754 203.278 81.4764 202.026 84.3464C200.775 87.2164 199.344 90.4452 199.076 90.804C198.808 91.2524 199.434 84.7052 199.076 82.6423C198.987 81.8351 198.004 82.1939 198.004 82.1939C196.663 102.553 177.175 117.621 161.71 119.863C157.688 120.401 156.436 122.374 151.967 124.886C150.536 125.693 148.212 126.051 146.246 127.217C144.279 128.294 142.849 129.998 142.223 131.074C141.865 131.522 142.402 133.047 142.759 133.227C143.206 133.406 143.117 132.15 143.653 131.881C144.1 131.702 144.1 132.33 144.726 132.33C145.262 132.33 145.888 131.792 145.888 131.792C145.888 131.792 156.883 131.792 161.532 131.612C162.426 131.612 163.766 131.253 164.392 130.626C164.213 130.087 162.962 130.357 162.157 130.446C158.85 130.267 154.47 130.446 151.43 130.267C151.43 130.267 150.983 130.267 150.983 129.729C150.983 129.549 152.95 127.397 152.95 127.397H151.43C151.43 127.397 150.536 127.935 150 127.935C149.553 128.025 149.374 127.666 149.553 127.576C151.788 125.603 158.85 122.374 158.85 122.374Z" fill="#F5C832"/>
</g>
<mask id="mask21_336_399" style="mask-type:luminance" maskUnits="userSpaceOnUse" x="0" y="0" width="300" height="177">
<path d="M300 0.487808H0V176.098H300V0.487808Z" fill="white"/>
</mask>
<g mask="url(#mask21_336_399)">
<path d="M142.938 133.227H142.759C142.402 133.137 142.223 132.509 142.133 132.33C141.955 131.881 141.865 131.253 142.133 130.895C142.849 129.639 144.368 128.025 146.246 127.038C147.318 126.41 148.391 126.051 149.553 125.693C150.447 125.334 151.341 125.065 152.056 124.706C153.486 123.899 154.559 123.181 155.453 122.464C157.509 121.119 159.029 120.042 161.8 119.684C178.248 117.352 196.663 101.656 197.914 82.1939C198.272 81.7454 199.166 82.0145 199.255 82.6423C199.434 83.7186 199.255 86.1402 199.255 88.0236C199.166 89.2793 199.076 90.5349 199.166 90.7143C199.166 90.3555 200.328 87.7546 201.49 85.2433L201.847 84.2567C203.367 80.9383 204.172 79.3239 204.887 79.3239H204.976L205.244 79.5929C206.049 80.5795 203.814 86.1402 201.043 92.7771C200.149 94.9296 199.255 96.9028 199.255 97.1718C200.06 97.1718 203.01 92.3287 205.155 88.8308C207.658 84.7052 208.641 83.2702 209.088 83.2702C210.965 86.4989 204.708 94.7503 201.758 98.6965C201.043 99.6831 200.328 100.49 200.328 100.67C200.864 100.58 202.384 99.3244 203.725 98.1584C205.513 96.544 207.39 94.84 208.373 94.84H208.462L208.909 95.0193C210.072 96.3647 206.317 100.042 202.384 103.809C201.4 104.706 200.417 105.692 200.328 105.872C200.775 106.141 201.758 105.513 202.741 104.975C204.529 103.898 206.138 103.181 206.228 103.988C206.317 105.064 204.708 106.858 201.222 109.28C200.596 109.728 199.881 109.997 199.344 110.266C198.987 110.446 198.629 110.625 198.54 110.715C198.897 110.715 199.166 110.715 199.434 110.715C200.149 110.625 200.864 110.625 201.043 110.894L201.222 111.253C201.132 112.329 199.613 112.867 198.361 113.226C197.646 113.495 196.931 113.674 196.663 114.033C196.663 114.213 197.199 114.302 197.467 114.392C198.004 114.392 198.451 114.482 198.629 114.751C198.54 115.917 196.752 116.186 195.232 116.455C194.607 116.634 193.802 116.724 193.623 116.814C193.713 116.814 194.07 116.993 194.338 116.993C194.964 117.083 195.858 117.352 195.769 118.069C195.679 118.697 194.428 118.787 192.998 118.966C192.014 119.056 191.031 119.145 190.673 119.415C190.673 119.415 191.12 119.594 191.389 119.684C192.104 119.863 192.729 120.042 192.729 120.491C192.729 120.76 192.461 121.119 190.852 121.567C186.919 122.823 185.489 123.181 182.986 123.63C178.516 124.347 176.281 124.527 175.387 124.527C174.315 124.527 174.136 124.347 174.046 124.168C174.225 123.72 174.94 123.54 177.622 123.092C178.248 123.002 178.874 122.912 179.142 122.823C179.499 122.733 179.946 122.643 180.393 122.464C181.377 122.195 182.449 122.016 182.807 121.836C183.969 121.119 185.042 120.491 186.561 120.222C186.83 120.042 186.561 119.773 186.472 119.594C186.204 119.325 186.025 118.966 186.114 118.697C186.204 118.338 186.383 118.249 186.74 118.249L187.098 118.428V117.98C187.277 117.98 187.545 117.98 187.813 117.531C188.081 117.172 187.992 116.903 187.902 116.724C187.902 116.545 187.813 116.365 187.813 116.275C187.902 115.917 188.26 115.827 189.064 115.648C189.69 115.558 190.495 115.289 190.763 115.02C190.495 114.751 190.316 114.571 190.316 114.302C190.226 114.033 190.673 113.854 191.746 113.226C192.282 112.957 193.176 112.509 193.266 112.329C193.266 112.239 193.087 112.15 192.908 112.06C192.729 111.97 192.461 111.791 192.461 111.612V111.522L192.729 111.253C192.998 111.074 193.445 110.804 193.981 110.535C195.143 109.908 196.573 109.19 197.02 108.473C196.752 108.293 196.573 108.293 196.395 108.383C196.216 108.383 196.037 108.473 195.948 108.473L195.501 108.293C195.411 108.114 195.59 107.934 195.679 107.845C195.858 107.665 196.126 107.396 196.395 107.127C197.11 106.499 198.004 105.692 198.361 104.616C198.093 104.616 197.914 104.616 197.735 104.706C196.841 104.885 196.395 104.616 196.395 104.347C196.305 103.809 196.663 103.091 196.931 102.374C197.288 101.656 197.646 100.939 197.646 100.221C197.288 100.042 196.663 100.401 196.395 100.58L195.769 99.7728C195.769 99.8625 194.07 100.311 191.299 103.54C189.958 105.064 189.064 106.589 188.17 108.024C187.098 109.818 186.114 111.522 184.505 112.778C183.88 113.136 183.164 113.226 182.539 113.495C179.589 114.482 176.46 115.558 172.527 120.042C172.259 120.222 171.901 120.311 171.007 120.401C169.666 120.491 167.431 120.58 163.677 121.388C160.459 122.016 158.582 122.733 158.582 122.823C158.492 122.823 151.52 125.962 149.195 127.756C149.911 127.756 150.626 127.397 150.894 127.307H152.592C151.788 128.563 150.805 129.639 150.805 129.818L151.073 130.357V130.177C154.201 130.357 158.492 130.177 161.8 130.446L162.336 130.357C163.051 130.267 163.945 129.998 164.213 130.715C163.498 131.522 162.068 131.881 161.174 131.881C156.526 132.061 145.799 132.061 145.53 132.061C145.53 132.061 144.905 132.599 144.368 132.599C144.011 132.599 143.832 132.419 143.743 132.24C143.385 132.24 143.206 132.599 143.117 132.778C143.296 132.957 143.206 133.227 142.938 133.227ZM198.54 82.1939C198.361 82.1939 198.182 82.2836 198.182 82.2836C197.02 101.746 178.427 117.531 161.8 119.953C159.118 120.311 157.688 121.388 155.632 122.733C154.648 123.451 153.576 124.168 152.145 124.975C151.43 125.424 150.536 125.693 149.553 125.962C148.48 126.321 147.408 126.679 146.335 127.307C144.547 128.294 143.117 129.908 142.402 131.074C142.223 131.253 142.312 131.702 142.491 132.24C142.67 132.688 142.849 132.957 142.938 132.957C143.027 132.957 143.117 132.599 143.117 132.509C143.206 132.15 143.385 131.792 143.653 131.612C144.1 131.612 144.19 131.702 144.368 131.792C144.458 131.971 144.547 132.061 144.726 132.061C145.173 132.061 145.799 131.612 145.799 131.612C145.888 131.522 156.883 131.522 161.532 131.343C162.247 131.343 163.677 131.074 164.213 130.446C164.124 130.446 163.945 130.446 163.588 130.446C163.319 130.446 163.051 130.446 162.783 130.536L162.157 130.626C158.85 130.357 154.47 130.626 151.341 130.357C151.341 130.357 151.073 130.357 150.894 130.177C150.805 129.998 150.715 129.908 150.715 129.639C150.715 129.46 151.43 128.652 152.771 127.217L151.341 127.576C151.341 127.576 150.447 128.114 150 128.114C149.642 128.114 149.374 128.025 149.285 127.756L149.195 127.576L149.374 127.397C151.788 125.603 158.582 122.554 158.85 122.374C158.85 122.374 160.727 121.657 163.945 120.939C167.7 120.132 169.934 119.953 171.275 119.863C171.99 119.863 172.437 119.773 172.616 119.684C176.639 115.199 179.768 114.123 182.807 113.047C183.433 112.867 184.058 112.598 184.684 112.419C186.204 111.163 187.187 109.549 188.26 107.755C189.154 106.32 190.048 104.885 191.389 103.271C194.428 99.7728 196.126 99.4141 196.216 99.4141L196.663 100.221C196.663 100.042 197.288 99.5934 197.735 99.5934L198.093 99.7728C198.182 99.8625 198.182 100.042 198.182 100.221C198.093 101.028 197.735 101.836 197.467 102.553C197.11 103.181 196.841 103.809 196.931 104.347C197.378 104.437 197.646 104.437 197.914 104.347C198.093 104.347 198.361 104.257 198.54 104.257L198.987 104.437C198.629 105.872 197.646 106.768 196.931 107.307C196.663 107.576 196.395 107.755 196.216 108.024C196.305 108.204 196.395 108.114 196.663 108.114C196.841 108.114 197.11 108.024 197.199 108.024H197.288L197.646 108.114C197.735 108.293 197.646 108.562 197.646 108.562C197.199 109.369 195.769 110.177 194.517 110.804C193.981 111.074 193.534 111.253 193.266 111.432C193.623 111.791 193.981 111.97 193.892 112.329C193.802 112.598 193.266 112.957 192.193 113.405C191.746 113.674 191.031 114.033 190.942 114.123C190.942 114.213 191.031 114.302 191.21 114.392L191.478 114.751C191.031 115.468 190.137 115.648 189.422 115.827C189.064 115.917 188.528 116.096 188.349 116.186C188.617 116.814 188.707 117.262 188.26 117.71C187.902 118.249 187.545 118.338 187.187 118.338H186.83C186.74 118.338 186.651 118.338 186.472 118.607C186.472 118.697 186.651 118.966 186.83 119.235C187.098 119.504 187.277 119.863 187.187 120.042C187.098 120.222 186.919 120.311 186.74 120.311C185.31 120.67 184.237 121.208 183.164 121.926C182.807 122.105 181.824 122.374 180.661 122.643C180.215 122.733 179.768 122.823 179.41 123.002C179.142 123.002 178.605 123.181 177.89 123.271C176.907 123.451 175.298 123.63 174.672 123.899C175.03 123.899 176.192 124.258 183.075 123.092C185.578 122.643 187.008 122.374 190.942 121.119C192.551 120.58 192.551 120.311 192.551 120.311C192.551 120.132 191.746 119.863 191.478 119.863C190.852 119.684 190.495 119.504 190.495 119.325V119.235L190.673 119.056C191.12 118.787 192.104 118.607 193.176 118.607C194.16 118.518 195.59 118.338 195.59 117.98C195.679 117.621 195.143 117.531 194.428 117.352C193.892 117.262 193.445 117.172 193.445 116.724C193.445 116.365 193.981 116.275 195.322 116.096C196.484 115.917 198.361 115.648 198.54 115.02C198.451 114.84 197.914 114.84 197.646 114.751C197.11 114.751 196.573 114.661 196.484 114.392L196.395 114.302L196.573 113.944C196.931 113.585 197.646 113.316 198.451 113.136C199.613 112.778 201.043 112.329 201.043 111.432C200.954 111.163 200.328 111.253 199.613 111.253C199.076 111.253 198.54 111.432 198.361 111.074C198.451 110.535 198.808 110.356 199.344 110.087C199.791 109.818 200.507 109.549 201.132 109.1C205.513 106.051 206.049 104.706 205.959 104.168C205.244 103.988 203.993 104.706 203.01 105.333C201.937 105.961 200.954 106.499 200.417 106.589L200.06 106.41C199.97 106.23 199.97 106.051 200.06 105.782C200.06 105.603 200.685 105.064 202.205 103.54C204.887 101.118 209.714 96.544 208.641 95.2884C207.658 95.2884 205.691 96.9925 204.082 98.4275C202.205 100.042 201.132 101.118 200.507 101.118H200.238L199.97 100.759C199.97 100.58 200.149 100.221 201.579 98.5172C204.529 94.6606 210.697 86.4989 209.178 83.6289C208.909 83.8083 207.122 86.5886 205.602 89.0999C202.473 94.2121 200.328 97.6203 199.344 97.6203C198.897 97.2615 198.987 96.9028 200.775 92.7771C202.652 88.2927 205.781 80.8486 205.066 79.862C204.529 79.862 203.188 82.5526 202.294 84.5258L201.937 85.5124C200.775 88.203 199.613 90.7143 199.344 91.073C198.897 90.9834 198.897 90.6246 198.987 88.203C199.076 86.3196 199.166 83.898 199.076 82.9114C198.897 82.2836 198.808 82.1939 198.54 82.1939Z" fill="#F5C832"/>
</g>
<mask id="mask22_336_399" style="mask-type:luminance" maskUnits="userSpaceOnUse" x="0" y="0" width="300" height="177">
<path d="M300 0.487808H0V176.098H300V0.487808Z" fill="white"/>
</mask>
<g mask="url(#mask22_336_399)">
<path d="M148.033 129.101C148.033 128.921 147.497 129.011 147.139 129.101C146.782 129.191 146.514 129.37 146.514 129.549C146.514 129.818 147.05 129.729 147.408 129.549C147.765 129.46 148.033 129.28 148.033 129.101Z" fill="#4EAEC4"/>
</g>
<mask id="mask23_336_399" style="mask-type:luminance" maskUnits="userSpaceOnUse" x="0" y="0" width="300" height="177">
<path d="M300 0.487808H0V176.098H300V0.487808Z" fill="white"/>
</mask>
<g mask="url(#mask23_336_399)">
<path d="M146.782 129.908H146.603L146.335 129.639C146.335 129.28 146.603 129.011 147.05 128.921C147.408 128.832 147.586 128.832 147.765 128.832H147.944L148.212 129.101C148.212 129.37 147.944 129.729 147.497 129.818C147.139 129.818 146.961 129.908 146.782 129.908Z" fill="#4EAEC4"/>
</g>
<mask id="mask24_336_399" style="mask-type:luminance" maskUnits="userSpaceOnUse" x="0" y="0" width="300" height="177">
<path d="M300 0.487808H0V176.098H300V0.487808Z" fill="white"/>
</mask>
<g mask="url(#mask24_336_399)">
<path d="M161.979 49.2783C163.319 49.5473 163.945 48.8298 164.124 47.8433C164.392 46.4979 163.856 39.861 163.856 39.861C163.856 39.861 160.816 45.7804 160.548 47.1258C160.37 48.1123 160.727 49.0092 161.979 49.2783Z" fill="#F5C832"/>
</g>
<mask id="mask25_336_399" style="mask-type:luminance" maskUnits="userSpaceOnUse" x="0" y="0" width="300" height="177">
<path d="M300 0.487808H0V176.098H300V0.487808Z" fill="white"/>
</mask>
<g mask="url(#mask25_336_399)">
<path d="M166.895 50.8029C168.147 51.3411 168.951 50.7133 169.309 49.8164C169.845 48.5607 170.56 41.9238 170.56 41.9238C170.56 41.9238 166.359 47.1257 165.822 48.3814C165.465 49.2782 165.644 50.2648 166.895 50.8029Z" fill="#F5C832"/>
</g>
<mask id="mask26_336_399" style="mask-type:luminance" maskUnits="userSpaceOnUse" x="0" y="0" width="300" height="177">
<path d="M300 0.487808H0V176.098H300V0.487808Z" fill="white"/>
</mask>
<g mask="url(#mask26_336_399)">
<path d="M171.275 53.2246C172.348 53.9421 173.242 53.4936 173.868 52.6864C174.583 51.6102 176.639 45.2423 176.639 45.2423C176.639 45.2423 171.543 49.5473 170.828 50.7133C170.203 51.4308 170.203 52.4174 171.275 53.2246Z" fill="#F5C832"/>
</g>
<mask id="mask27_336_399" style="mask-type:luminance" maskUnits="userSpaceOnUse" x="0" y="0" width="300" height="177">
<path d="M300 0.487808H0V176.098H300V0.487808Z" fill="white"/>
</mask>
<g mask="url(#mask27_336_399)">
<path d="M175.209 56.3636C176.192 57.3502 177.086 57.0811 177.801 56.3636C178.784 55.4667 182.002 49.637 182.002 49.637C182.002 49.637 176.192 52.8658 175.209 53.7627C174.493 54.4802 174.225 55.377 175.209 56.3636Z" fill="#F5C832"/>
</g>
<mask id="mask28_336_399" style="mask-type:luminance" maskUnits="userSpaceOnUse" x="0" y="0" width="300" height="177">
<path d="M300 0.487808H0V176.098H300V0.487808Z" fill="white"/>
</mask>
<g mask="url(#mask28_336_399)">
<path d="M178.427 60.3099C179.142 61.3862 180.215 61.3862 181.019 60.7584C182.181 59.9512 186.472 54.9286 186.472 54.9286C186.472 54.9286 180.125 56.9915 179.052 57.709C178.069 58.2471 177.622 59.144 178.427 60.3099Z" fill="#F5C832"/>
</g>
<mask id="mask29_336_399" style="mask-type:luminance" maskUnits="userSpaceOnUse" x="0" y="0" width="300" height="177">
<path d="M300 0.487808H0V176.098H300V0.487808Z" fill="white"/>
</mask>
<g mask="url(#mask29_336_399)">
<path d="M180.751 64.7047C181.287 65.9603 182.271 66.1397 183.164 65.6912C184.416 65.1531 189.601 61.0274 189.601 61.0274C189.601 61.0274 182.986 61.8346 181.734 62.2831C180.84 62.7315 180.304 63.5387 180.751 64.7047Z" fill="#F5C832"/>
</g>
<mask id="mask30_336_399" style="mask-type:luminance" maskUnits="userSpaceOnUse" x="0" y="0" width="300" height="177">
<path d="M300 0.487808H0V176.098H300V0.487808Z" fill="white"/>
</mask>
<g mask="url(#mask30_336_399)">
<path d="M182.271 69.6375C182.539 70.8932 183.433 71.2519 184.416 71.0725C185.757 70.8035 191.657 67.7541 191.657 67.7541C191.657 67.7541 185.042 67.2159 183.701 67.3953C182.717 67.5747 182.002 68.2922 182.271 69.6375Z" fill="#F5C832"/>
</g>
<mask id="mask31_336_399" style="mask-type:luminance" maskUnits="userSpaceOnUse" x="0" y="0" width="300" height="177">
<path d="M300 0.487808H0V176.098H300V0.487808Z" fill="white"/>
</mask>
<g mask="url(#mask31_336_399)">
<path d="M182.717 74.6601C182.717 76.0054 183.611 76.5435 184.595 76.5435C185.936 76.5435 192.372 74.6601 192.372 74.6601C192.372 74.6601 186.025 72.7766 184.595 72.7766C183.611 72.7766 182.717 73.2251 182.717 74.6601Z" fill="#F5C832"/>
</g>
<mask id="mask32_336_399" style="mask-type:luminance" maskUnits="userSpaceOnUse" x="0" y="0" width="300" height="177">
<path d="M300 0.487808H0V176.098H300V0.487808Z" fill="white"/>
</mask>
<g mask="url(#mask32_336_399)">
<path d="M182.271 79.6826C182.002 81.0279 182.718 81.6557 183.79 81.8351C185.042 82.1042 191.746 81.566 191.746 81.566C191.746 81.566 185.846 78.5166 184.505 78.1579C183.433 77.9785 182.449 78.3372 182.271 79.6826Z" fill="#F5C832"/>
</g>
<mask id="mask33_336_399" style="mask-type:luminance" maskUnits="userSpaceOnUse" x="0" y="0" width="300" height="177">
<path d="M300 0.487808H0V176.098H300V0.487808Z" fill="white"/>
</mask>
<g mask="url(#mask33_336_399)">
<path d="M180.751 84.5257C180.304 85.7814 180.84 86.5886 181.734 86.9473C182.986 87.4855 189.601 88.203 189.601 88.203C189.601 88.203 184.416 84.0773 183.164 83.5392C182.271 83.0907 181.287 83.2701 180.751 84.5257Z" fill="#F5C832"/>
</g>
<mask id="mask34_336_399" style="mask-type:luminance" maskUnits="userSpaceOnUse" x="0" y="0" width="300" height="177">
<path d="M300 0.487808H0V176.098H300V0.487808Z" fill="white"/>
</mask>
<g mask="url(#mask34_336_399)">
<path d="M178.427 89.0102C177.712 90.0865 178.159 90.9834 178.963 91.6112C180.036 92.3287 186.383 94.3915 186.383 94.3915C186.383 94.3915 182.092 89.2793 180.93 88.4721C180.125 87.934 179.142 87.8443 178.427 89.0102Z" fill="#F5C832"/>
</g>
<mask id="mask35_336_399" style="mask-type:luminance" maskUnits="userSpaceOnUse" x="0" y="0" width="300" height="177">
<path d="M300 0.487808H0V176.098H300V0.487808Z" fill="white"/>
</mask>
<g mask="url(#mask35_336_399)">
<path d="M175.209 92.8668C174.225 93.8534 174.493 94.7502 175.209 95.5574C176.192 96.4543 182.002 99.6831 182.002 99.6831C182.002 99.6831 178.784 93.8534 177.801 92.8668C177.086 92.1493 176.192 91.9699 175.209 92.8668Z" fill="#F5C832"/>
</g>
<mask id="mask36_336_399" style="mask-type:luminance" maskUnits="userSpaceOnUse" x="0" y="0" width="300" height="177">
<path d="M300 0.487808H0V176.098H300V0.487808Z" fill="white"/>
</mask>
<g mask="url(#mask36_336_399)">
<path d="M171.275 96.0955C170.203 96.9027 170.203 97.8893 170.739 98.6965C171.543 99.8625 176.549 104.167 176.549 104.167C176.549 104.167 174.493 97.7996 173.778 96.7234C173.331 95.7368 172.437 95.2883 171.275 96.0955Z" fill="#F5C832"/>
</g>
<mask id="mask37_336_399" style="mask-type:luminance" maskUnits="userSpaceOnUse" x="0" y="0" width="300" height="177">
<path d="M300 0.487808H0V176.098H300V0.487808Z" fill="white"/>
</mask>
<g mask="url(#mask37_336_399)">
<path d="M166.895 98.5171C165.644 99.0553 165.554 99.9521 165.912 100.939C166.448 102.194 170.65 107.396 170.65 107.396C170.65 107.396 169.934 100.759 169.398 99.5037C168.862 98.6068 168.057 97.979 166.895 98.5171Z" fill="#F5C832"/>
</g>
<mask id="mask38_336_399" style="mask-type:luminance" maskUnits="userSpaceOnUse" x="0" y="0" width="300" height="177">
<path d="M300 0.487808H0V176.098H300V0.487808Z" fill="white"/>
</mask>
<g mask="url(#mask38_336_399)">
<path d="M142.759 96.0956C141.597 95.378 140.703 95.7368 140.167 96.6337C139.452 97.7099 137.396 104.078 137.396 104.078C137.396 104.078 142.491 99.7728 143.206 98.6068C143.832 97.7996 143.832 96.8131 142.759 96.0956Z" fill="#F5C832"/>
</g>
<mask id="mask39_336_399" style="mask-type:luminance" maskUnits="userSpaceOnUse" x="0" y="0" width="300" height="177">
<path d="M300 0.487808H0V176.098H300V0.487808Z" fill="white"/>
</mask>
<g mask="url(#mask39_336_399)">
<path d="M138.826 92.8668C137.843 91.8802 136.949 92.1493 136.234 92.8668C135.25 93.7636 132.032 99.6831 132.032 99.6831C132.032 99.6831 137.843 96.4543 138.826 95.5574C139.541 94.8399 139.809 93.8533 138.826 92.8668Z" fill="#F5C832"/>
</g>
<mask id="mask40_336_399" style="mask-type:luminance" maskUnits="userSpaceOnUse" x="0" y="0" width="300" height="177">
<path d="M300 0.487808H0V176.098H300V0.487808Z" fill="white"/>
</mask>
<g mask="url(#mask40_336_399)">
<path d="M135.608 89.0102C134.893 87.9339 133.909 87.9339 133.015 88.472C131.853 89.2792 127.563 94.3915 127.563 94.3915C127.563 94.3915 133.909 92.3286 135.071 91.6111C135.965 90.9833 136.412 90.0864 135.608 89.0102Z" fill="#F5C832"/>
</g>
<mask id="mask41_336_399" style="mask-type:luminance" maskUnits="userSpaceOnUse" x="0" y="0" width="300" height="177">
<path d="M300 0.487808H0V176.098H300V0.487808Z" fill="white"/>
</mask>
<g mask="url(#mask41_336_399)">
<path d="M133.284 84.5258C132.747 83.2701 131.764 83.1805 130.87 83.5392C129.619 84.0773 124.434 88.203 124.434 88.203C124.434 88.203 131.049 87.4855 132.3 86.9474C133.194 86.4989 133.731 85.7814 133.284 84.5258Z" fill="#F5C832"/>
</g>
<mask id="mask42_336_399" style="mask-type:luminance" maskUnits="userSpaceOnUse" x="0" y="0" width="300" height="177">
<path d="M300 0.487808H0V176.098H300V0.487808Z" fill="white"/>
</mask>
<g mask="url(#mask42_336_399)">
<path d="M131.764 79.6826C131.496 78.3373 130.602 78.0682 129.529 78.2476C128.278 78.5167 122.288 81.6558 122.288 81.6558C122.288 81.6558 128.903 82.1939 130.244 81.9248C131.317 81.6558 132.032 81.028 131.764 79.6826Z" fill="#F5C832"/>
</g>
<mask id="mask43_336_399" style="mask-type:luminance" maskUnits="userSpaceOnUse" x="0" y="0" width="300" height="177">
<path d="M300 0.487808H0V176.098H300V0.487808Z" fill="white"/>
</mask>
<g mask="url(#mask43_336_399)">
<path d="M131.317 74.6601C131.317 73.3147 130.423 72.7766 129.44 72.7766C128.099 72.7766 121.663 74.6601 121.663 74.6601C121.663 74.6601 128.099 76.5435 129.44 76.5435C130.423 76.4538 131.317 76.0054 131.317 74.6601Z" fill="#F5C832"/>
</g>
<mask id="mask44_336_399" style="mask-type:luminance" maskUnits="userSpaceOnUse" x="0" y="0" width="300" height="177">
<path d="M300 0.487808H0V176.098H300V0.487808Z" fill="white"/>
</mask>
<g mask="url(#mask44_336_399)">
<path d="M131.764 69.6375C132.032 68.2922 131.317 67.6644 130.334 67.3953C128.993 67.1262 122.378 67.7541 122.378 67.7541C122.378 67.7541 128.278 70.8035 129.619 71.0725C130.602 71.2519 131.496 70.9828 131.764 69.6375Z" fill="#F5C832"/>
</g>
<mask id="mask45_336_399" style="mask-type:luminance" maskUnits="userSpaceOnUse" x="0" y="0" width="300" height="177">
<path d="M300 0.487808H0V176.098H300V0.487808Z" fill="white"/>
</mask>
<g mask="url(#mask45_336_399)">
<path d="M133.284 64.7047C133.82 63.449 133.194 62.6418 132.3 62.2831C131.049 61.8346 124.434 61.0274 124.434 61.0274C124.434 61.0274 129.619 65.1531 130.87 65.6912C131.764 66.1397 132.747 65.9603 133.284 64.7047Z" fill="#F5C832"/>
</g>
<mask id="mask46_336_399" style="mask-type:luminance" maskUnits="userSpaceOnUse" x="0" y="0" width="300" height="177">
<path d="M300 0.487808H0V176.098H300V0.487808Z" fill="white"/>
</mask>
<g mask="url(#mask46_336_399)">
<path d="M135.608 60.3099C136.323 59.2337 135.965 58.2471 135.071 57.709C133.999 56.9915 127.563 54.9286 127.563 54.9286C127.563 54.9286 131.853 60.0409 133.015 60.7584C133.909 61.3862 134.893 61.4759 135.608 60.3099Z" fill="#F5C832"/>
</g>
<mask id="mask47_336_399" style="mask-type:luminance" maskUnits="userSpaceOnUse" x="0" y="0" width="300" height="177">
<path d="M300 0.487808H0V176.098H300V0.487808Z" fill="white"/>
</mask>
<g mask="url(#mask47_336_399)">
<path d="M138.826 56.3636C139.72 55.377 139.541 54.4802 138.826 53.7627C137.843 52.7761 132.032 49.637 132.032 49.637C132.032 49.637 135.25 55.4667 136.234 56.3636C136.949 57.0811 137.843 57.3502 138.826 56.3636Z" fill="#F5C832"/>
</g>
<mask id="mask48_336_399" style="mask-type:luminance" maskUnits="userSpaceOnUse" x="0" y="0" width="300" height="177">
<path d="M300 0.487808H0V176.098H300V0.487808Z" fill="white"/>
</mask>
<g mask="url(#mask48_336_399)">
<path d="M156.973 51.9689C169.487 51.9689 179.589 62.1037 179.589 74.6601C179.589 87.2164 169.487 97.4409 156.973 97.4409C144.458 97.4409 134.267 87.3061 134.267 74.6601C134.356 62.1037 144.458 51.9689 156.973 51.9689Z" fill="#F5C832"/>
</g>
<mask id="mask49_336_399" style="mask-type:luminance" maskUnits="userSpaceOnUse" x="0" y="0" width="300" height="177">
<path d="M300 0.487808H0V176.098H300V0.487808Z" fill="white"/>
</mask>
<g mask="url(#mask49_336_399)">
<path d="M156.973 48.8298C158.313 48.8298 158.85 47.9329 158.85 46.9464C158.85 45.6011 156.973 39.1435 156.973 39.1435C156.973 39.1435 155.185 45.6011 155.185 46.9464C155.185 47.9329 155.632 48.8298 156.973 48.8298Z" fill="#F5C832"/>
</g>
<mask id="mask50_336_399" style="mask-type:luminance" maskUnits="userSpaceOnUse" x="0" y="0" width="300" height="177">
<path d="M300 0.487808H0V176.098H300V0.487808Z" fill="white"/>
</mask>
<g mask="url(#mask50_336_399)">
<path d="M161.979 99.9522C160.638 100.311 160.369 101.208 160.548 102.194C160.816 103.45 163.856 109.459 163.856 109.459C163.856 109.459 164.392 102.733 164.124 101.477C164.035 100.401 163.319 99.6831 161.979 99.9522Z" fill="#F5C832"/>
</g>
<mask id="mask51_336_399" style="mask-type:luminance" maskUnits="userSpaceOnUse" x="0" y="0" width="300" height="177">
<path d="M300 0.487808H0V176.098H300V0.487808Z" fill="white"/>
</mask>
<g mask="url(#mask51_336_399)">
<path d="M156.973 100.401C155.632 100.401 155.185 101.297 155.185 102.284C155.185 103.629 156.973 110.087 156.973 110.087C156.973 110.087 158.85 103.719 158.85 102.284C158.85 101.297 158.313 100.401 156.973 100.401Z" fill="#F5C832"/>
</g>
<mask id="mask52_336_399" style="mask-type:luminance" maskUnits="userSpaceOnUse" x="0" y="0" width="300" height="177">
<path d="M300 0.487808H0V176.098H300V0.487808Z" fill="white"/>
</mask>
<g mask="url(#mask52_336_399)">
<path d="M151.967 99.9522C150.626 99.7728 150 100.401 149.821 101.477C149.553 102.733 150.089 109.459 150.089 109.459C150.089 109.459 153.129 103.54 153.397 102.194C153.665 101.118 153.307 100.221 151.967 99.9522Z" fill="#F5C832"/>
</g>
<mask id="mask53_336_399" style="mask-type:luminance" maskUnits="userSpaceOnUse" x="0" y="0" width="300" height="177">
<path d="M300 0.487808H0V176.098H300V0.487808Z" fill="white"/>
</mask>
<g mask="url(#mask53_336_399)">
<path d="M147.139 98.5171C145.888 97.979 145.083 98.6068 144.726 99.5037C144.189 100.759 143.474 107.396 143.474 107.396C143.474 107.396 147.676 102.194 148.212 100.939C148.57 99.9521 148.391 98.9656 147.139 98.5171Z" fill="#F5C832"/>
</g>
<mask id="mask54_336_399" style="mask-type:luminance" maskUnits="userSpaceOnUse" x="0" y="0" width="300" height="177">
<path d="M300 0.487808H0V176.098H300V0.487808Z" fill="white"/>
</mask>
<g mask="url(#mask54_336_399)">
<path d="M142.759 53.2245C143.832 52.4173 143.832 51.4308 143.206 50.6236C142.491 49.5473 137.396 45.1526 137.396 45.1526C137.396 45.1526 139.452 51.5205 140.167 52.5967C140.703 53.4936 141.597 53.942 142.759 53.2245Z" fill="#F5C832"/>
</g>
<mask id="mask55_336_399" style="mask-type:luminance" maskUnits="userSpaceOnUse" x="0" y="0" width="300" height="177">
<path d="M300 0.487808H0V176.098H300V0.487808Z" fill="white"/>
</mask>
<g mask="url(#mask55_336_399)">
<path d="M147.139 50.8029C148.391 50.2648 148.48 49.3679 148.123 48.3814C147.586 47.1257 143.385 41.9238 143.385 41.9238C143.385 41.9238 144.1 48.5607 144.636 49.8164C145.083 50.7133 145.888 51.2514 147.139 50.8029Z" fill="#F5C832"/>
</g>
<mask id="mask56_336_399" style="mask-type:luminance" maskUnits="userSpaceOnUse" x="0" y="0" width="300" height="177">
<path d="M300 0.487808H0V176.098H300V0.487808Z" fill="white"/>
</mask>
<g mask="url(#mask56_336_399)">
<path d="M151.967 49.2783C153.307 49.0092 153.576 48.1123 153.397 47.0361C153.129 45.7804 150.089 39.7713 150.089 39.7713C150.089 39.7713 149.553 46.4979 149.821 47.7536C150 48.8298 150.715 49.637 151.967 49.2783Z" fill="#F5C832"/>
</g>
</g>
</g>
<defs>
<clipPath id="clip0_336_399">
<rect width="300" height="175.61" fill="white" transform="translate(0 0.487808)"/>
</clipPath>
</defs>
</svg>
